

<svg aria-hidden="true" style="position: absolute; width: 0; height: 0; overflow: hidden;" version="1.1"
        xmlns="http://www.w3.org/2000/svg" xmlns:xlink="http://www.w3.org/1999/xlink">

    <defs>

        <symbol id="antenna" width="64" height="64" viewbox="0 0 64 64" fill="none">
                <path id="Vector" d="M61.5463 44.1952L44.6599 27.1851L46.534 17.9541C47.0176 18.1429 47.5318 18.2416 48.0508 18.2453H48.0636C50.4482 18.2735 52.404 16.3633 52.4323 13.9788C52.4606 11.5943 50.5503 9.6384 48.1658 9.61013C45.7812 9.582 43.8254 11.4921 43.7971 13.8767C43.7911 14.3869 43.8755 14.8941 44.0466 15.3749L34.1266 16.5856L17.9452 0.32C17.7467 0.117467 17.4757 0.00226667 17.1921 0C16.9121 0.00146667 16.644 0.112933 16.4455 0.3104L13.4204 3.3184C13.004 3.73493 13.004 4.41013 13.4204 4.82667L15.0481 6.47787C8.74201 18.0737 10.7903 32.4335 20.0871 41.8037C20.1724 41.8853 20.2713 41.9513 20.3793 41.9989C20.3121 42.3599 20.2771 42.7261 20.2748 43.0933V55.4667H7.47481C4.53081 55.4701 2.14495 57.856 2.14148 60.8V62.9333C2.14148 63.5224 2.61908 64 3.20815 64H52.2748C52.8639 64 53.3415 63.5224 53.3415 62.9333V60.8C53.338 57.856 50.9522 55.4701 48.0082 55.4667H35.2082V49.9829C37.2134 50.4035 39.2564 50.6179 41.3052 50.6229C46.2215 50.6176 51.0595 49.392 55.3852 47.056L57.0215 48.7019C57.22 48.9044 57.491 49.0196 57.7746 49.0219C58.0546 49.0204 58.3227 48.9089 58.5212 48.7115L61.5463 45.7035C61.9627 45.2869 61.9627 44.6117 61.5463 44.1952ZM46.5596 12.4661C47.395 11.6352 48.7458 11.6389 49.5766 12.4743C50.4075 13.3096 50.4038 14.6604 49.5684 15.4912C49.1686 15.8889 48.6275 16.1121 48.0635 16.112H48.0571C46.879 16.1059 45.9287 15.1459 45.9348 13.9676C45.9378 13.4036 46.1639 12.8639 46.5638 12.4661H46.5596ZM44.0487 19.4752L42.8519 25.3664L40.5009 23.0016L44.0487 19.4752ZM42.837 17.6715L38.997 21.4891L36.0263 18.5024L42.837 17.6715ZM48.0082 57.6C49.7755 57.6 51.2082 59.0327 51.2082 60.8V61.8667H4.27481V60.8C4.27481 59.0327 5.70748 57.6 7.47481 57.6H48.0082ZM33.0748 53.3333V55.4667H22.4081V53.3333H33.0748ZM22.4081 51.2V43.0933C22.4081 40.5056 24.8007 38.4 27.7415 38.4C30.6823 38.4 33.0748 40.5056 33.0748 43.0933V51.2H22.4081ZM35.2082 47.808V43.0933C35.2082 39.3291 31.8588 36.2667 27.7415 36.2667C25.0793 36.2259 22.59 37.5809 21.1793 39.8389C13.0639 31.2913 11.2364 18.5485 16.6221 8.06467L53.8258 45.4816C48.081 48.404 41.4955 49.2268 35.2082 47.808ZM57.7863 46.4405L56.2834 44.9291L17.1815 5.59147L15.6721 4.07893L17.1815 2.57493L33.0513 18.5344C33.0588 18.5344 33.0631 18.5483 33.0706 18.5536L59.2999 44.9365L57.7863 46.4405Z" fill="#2E2F42"></path>
                <path id="Vector_2" d="M27.7511 40.5333H27.7415C25.9742 40.5306 24.5394 41.9612 24.5367 43.7285C24.534 45.4958 25.9646 46.9306 27.7319 46.9333H27.7415C29.5088 46.936 30.9436 45.5054 30.9463 43.7381C30.9489 41.9708 29.5184 40.536 27.7511 40.5333ZM28.4978 44.4896C28.297 44.6893 28.0248 44.801 27.7415 44.8C27.1524 44.7969 26.6774 44.3169 26.6804 43.7278C26.6819 43.4458 26.795 43.176 26.9948 42.977C27.1934 42.7796 27.4615 42.6681 27.7415 42.6666C28.3306 42.6697 28.8056 43.1497 28.8026 43.7388C28.8011 44.0208 28.688 44.2906 28.4882 44.4896H28.4978Z" fill="#4D5AE5"></path>
        </symbol>

        <symbol id="clock" width="64" height="64" viewbox="0 0 64 64" fill="none">
                <path id="Vector" d="M62.5933 30.6025C62.5899 13.6978 48.8828 -0.00341734 31.9775 6.39362e-07C15.0728 0.00341861 1.37158 13.7109 1.375 30.6157C1.37793 43.9316 9.98877 55.7178 22.6738 59.7681C22.7949 59.8062 22.9209 59.8257 23.0474 59.8252C23.2886 59.8247 23.5249 59.7603 23.7324 59.6377C24.0024 59.478 24.2041 59.2241 24.2988 58.9248L32.0288 34.4248C34.1421 34.4141 35.8462 32.6919 35.835 30.5791C35.8242 28.4658 34.1025 26.7617 31.9893 26.7725C31.4209 26.7749 30.8599 26.9058 30.3491 27.1553L20.1372 16.9419C19.6304 16.4526 18.8232 16.4668 18.334 16.9731C17.8564 17.4678 17.8564 18.251 18.334 18.7456L28.5405 28.9639C27.7573 30.5625 28.2051 32.4922 29.6133 33.582L22.248 56.9277C7.69238 51.5659 0.239258 35.4199 5.60108 20.8643C10.9629 6.30859 27.1089 -1.14453 41.6646 4.21729C56.2202 9.5791 63.6733 25.7256 58.3115 40.2808C55.6919 47.3921 50.3096 53.1431 43.3872 56.2275L42.5913 52.479C42.4458 51.79 41.7686 51.3496 41.0796 51.4956C40.8623 51.542 40.6606 51.6441 40.4946 51.792L32.8208 58.6431C32.2944 59.1113 32.2476 59.9175 32.7163 60.4439C32.8687 60.6148 33.064 60.7417 33.2827 60.8115L43.0801 63.9385C43.7505 64.1538 44.4688 63.7852 44.6841 63.1143C44.7524 62.9024 44.7637 62.6768 44.7178 62.459L43.9356 58.7808C55.2642 54.0049 62.6196 42.8965 62.5933 30.6025ZM31.9844 29.3272C32.6885 29.3272 33.2598 29.8984 33.2598 30.6025C33.2598 31.3071 32.6885 31.8779 31.9844 31.8779C31.2798 31.8779 30.709 31.3071 30.709 30.6025C30.709 29.8984 31.2798 29.3272 31.9844 29.3272ZM36.1851 59.0552L40.5532 55.1587L41.7588 60.8394L36.1851 59.0552Z" fill="#2E2F42"></path>
                <path id="Vector_2" d="M30.709 6.37012V8.9209C30.709 9.62549 31.2798 10.1963 31.9844 10.1963C32.6885 10.1963 33.2598 9.62549 33.2598 8.9209V6.37012C33.2598 5.66602 32.6885 5.09473 31.9844 5.09473C31.2798 5.09473 30.709 5.66602 30.709 6.37012Z" fill="#4D5AE5"></path>
                <path id="Vector_3" d="M7.75195 29.3271C7.04736 29.3271 6.47656 29.8984 6.47656 30.6025C6.47656 31.3071 7.04736 31.8779 7.75195 31.8779H10.3027C11.0073 31.8779 11.5781 31.3071 11.5781 30.6025C11.5781 29.8984 11.0073 29.3271 10.3027 29.3271H7.75195Z" fill="#4D5AE5"></path>
                <path id="Vector_4" d="M56.2162 31.8779C56.9208 31.8779 57.4916 31.3071 57.4916 30.6025C57.4916 29.8984 56.9208 29.3271 56.2162 29.3271H53.6655C52.9614 29.3271 52.3901 29.8984 52.3901 30.6025C52.3901 31.3071 52.9614 31.8779 53.6655 31.8779H56.2162Z" fill="#4D5AE5"></path>
        </symbol>

        <symbol id="diagram" width="64" height="64" viewbox="0 0 64 64" fill="none">
                <path id="Vector" d="M29.8511 29.9292H31.9833V39.5242H29.8511V29.9292Z" fill="#4D5AE5"></path>
                <path id="Vector_2" d="M38.3799 34.1936H40.5121V39.5242H38.3799V34.1936Z" fill="#4D5AE5"></path>
                <path id="Vector_3" d="M21.3221 37.392H23.4544V39.5242H21.3221V37.392Z" fill="#4D5AE5"></path>
                <path id="Vector_4" d="M14.9255 36.3258H17.0578V39.5241H14.9255V36.3258Z" fill="#4D5AE5"></path>
                <path id="Vector_5" d="M3.19833 56.5819H54.3715C56.1378 56.5819 57.5699 55.1499 57.5699 53.3836V49.1192C57.5699 47.3529 56.1378 45.9209 54.3715 45.9209H53.3054V19.3343L59.3611 13.5977C60.7666 14.2905 62.4678 13.8699 63.3876 12.6003C64.308 11.3312 64.1789 9.58364 63.0826 8.46339C61.9863 7.34314 60.2424 7.17604 58.953 8.06776C57.6641 8.96 57.206 10.6513 57.8681 12.0719L53.3054 16.3973V13.9376C53.3054 12.1713 51.8734 10.7393 50.1071 10.7393H7.46276C5.6965 10.7393 4.26443 12.1713 4.26443 13.9376V45.9209H3.19833C1.43206 45.9209 0 47.3529 0 49.1192V53.3836C0 55.1499 1.43206 56.5819 3.19833 56.5819ZM60.7682 9.67317C61.3569 9.67317 61.8343 10.1505 61.8343 10.7393C61.8343 11.328 61.3569 11.8054 60.7682 11.8054C60.1794 11.8054 59.7021 11.328 59.7021 10.7393C59.7021 10.1505 60.1794 9.67317 60.7682 9.67317ZM6.39665 13.9376C6.39665 13.3489 6.874 12.8715 7.46276 12.8715H50.1071C50.6958 12.8715 51.1732 13.3489 51.1732 13.9376V18.4149L49.041 20.441V16.0698C49.041 15.4811 48.5636 15.0037 47.9749 15.0037H9.59498C9.00622 15.0037 8.52887 15.4811 8.52887 16.0698V42.7225C8.52887 43.3113 9.00622 43.7886 9.59498 43.7886H47.9749C48.5636 43.7886 49.041 43.3113 49.041 42.7225V23.3738L51.1732 21.3535V45.9209H6.39665V13.9376ZM15.9916 27.797C14.5492 27.7929 13.2826 28.7538 12.899 30.1442C12.5153 31.5346 13.1093 33.0094 14.3498 33.7455C15.5898 34.4815 17.1697 34.2967 18.2061 33.2936L21.912 35.1531C22.3425 35.3686 22.8646 35.2676 23.1847 34.9079L31.0624 26.0453L38.8062 31.848C39.2216 32.1593 39.8016 32.126 40.1784 31.7694L46.9088 25.3941V41.6564H10.6611V17.1359H46.9088V22.4566L39.3658 29.5997L31.5569 23.7455C31.1134 23.4134 30.4892 23.4758 30.1207 23.8897L22.1348 32.8751L19.1493 31.3821C19.1712 31.2541 19.1847 31.125 19.19 30.9953C19.19 29.2291 17.7579 27.797 15.9916 27.797ZM17.0577 30.9953C17.0577 31.5841 16.5804 32.0615 15.9916 32.0615C15.4029 32.0615 14.9255 31.5841 14.9255 30.9953C14.9255 30.4066 15.4029 29.9292 15.9916 29.9292C16.5804 29.9292 17.0577 30.4066 17.0577 30.9953ZM23.4544 48.0531H34.1155V49.1192C34.1155 49.7079 33.6381 50.1853 33.0494 50.1853H24.5205C23.9317 50.1853 23.4544 49.7079 23.4544 49.1192V48.0531ZM2.13222 49.1192C2.13222 48.5304 2.60957 48.0531 3.19833 48.0531H21.3222V49.1192C21.3222 50.8855 22.7542 52.3175 24.5205 52.3175H33.0494C34.8156 52.3175 36.2477 50.8855 36.2477 49.1192V48.0531H54.3715C54.9603 48.0531 55.4376 48.5304 55.4376 49.1192V53.3836C55.4376 53.9724 54.9603 54.4497 54.3715 54.4497H3.19833C2.60957 54.4497 2.13222 53.9724 2.13222 53.3836V49.1192Z" fill="#2E2F42"></path>
        </symbol>

        <symbol id="astronaut" width="64" height="64" viewbox="0 0 64 64" fill="none">
            <path id="Vector" d="M63.9481 9.04812C63.8222 8.66299 63.4894 8.38149 63.0873 8.32274L59.2665 7.76698L57.5566 4.30455C57.1982 3.57492 56.0025 3.57492 55.6441 4.30455L53.9342 7.76698L50.1132 8.32286C49.7111 8.38149 49.3784 8.66212 49.2514 9.04825C49.1266 9.43438 49.23 9.85889 49.5212 10.1416L52.2872 12.8372L51.6344 16.6431C51.5661 17.0431 51.7304 17.4474 52.0579 17.6864C52.3897 17.9275 52.8227 17.9573 53.1822 17.7674L56.5998 15.97L60.0175 17.7674C60.1733 17.8495 60.345 17.89 60.5146 17.89C60.7354 17.89 60.9563 17.8218 61.1419 17.6863C61.4704 17.4474 61.6347 17.043 61.5654 16.643L60.9127 12.8371L63.6786 10.1415C63.9683 9.85776 64.073 9.43425 63.9481 9.04812ZM59.0223 11.702C58.7716 11.9463 58.6564 12.3004 58.7161 12.6461L59.098 14.8743L57.097 13.8226C56.9412 13.7404 56.7706 13.6999 56.5998 13.6999C56.4292 13.6999 56.2596 13.7404 56.1027 13.8226L54.1016 14.8743L54.4834 12.6461C54.5432 12.3004 54.4279 11.9474 54.1773 11.702L52.557 10.1234L54.7949 9.79801C55.1427 9.74788 55.4424 9.52926 55.5982 9.2145L56.5987 7.18785L57.5992 9.2145C57.755 9.52913 58.0547 9.74788 58.4025 9.79801L60.6404 10.1234L59.0223 11.702Z" fill="#4D5AE5"></path>
            <path id="Vector_2" d="M52.267 41.0444H50.1335V43.1778H52.267V41.0444Z" fill="#4D5AE5"></path>
            <path id="Vector_3" d="M52.267 45.3112H50.1335V47.4446H52.267V45.3112Z" fill="#4D5AE5"></path>
            <path id="Vector_4" d="M54.4004 43.1778H52.267V45.3112H54.4004V43.1778Z" fill="#4D5AE5"></path>
            <path id="Vector_5" d="M50.1337 43.1778H48.0002V45.3112H50.1337V43.1778Z" fill="#4D5AE5"></path>
            <path id="Vector_6" d="M44.8001 52.778H42.6667V54.9113H44.8001V52.778Z" fill="#4D5AE5"></path>
            <path id="Vector_7" d="M44.8001 57.0446H42.6667V59.1781H44.8001V57.0446Z" fill="#4D5AE5"></path>
            <path id="Vector_8" d="M46.9336 54.9113H44.8002V57.0448H46.9336V54.9113Z" fill="#4D5AE5"></path>
            <path id="Vector_9" d="M42.6667 54.9113H40.5333V57.0448H42.6667V54.9113Z" fill="#4D5AE5"></path>
            <path id="Vector_10" d="M32 48.5113H29.8666V50.6447H32V48.5113Z" fill="#4D5AE5"></path>
            <path id="Vector_11" d="M32 52.778H29.8666V54.9113H32V52.778Z" fill="#4D5AE5"></path>
            <path id="Vector_12" d="M34.1334 50.6445H32V52.7779H34.1334V50.6445Z" fill="#4D5AE5"></path>
            <path id="Vector_13" d="M29.8666 50.6445H27.7332V52.7779H29.8666V50.6445Z" fill="#4D5AE5"></path>
            <path id="Vector_14" d="M11.733 12.2439H9.59961V14.3773H11.733V12.2439Z" fill="#4D5AE5"></path>
            <path id="Vector_15" d="M11.733 16.5108H9.59961V18.6442H11.733V16.5108Z" fill="#4D5AE5"></path>
            <path id="Vector_16" d="M13.8663 14.3774H11.7329V16.5108H13.8663V14.3774Z" fill="#4D5AE5"></path>
            <path id="Vector_17" d="M9.59959 14.3774H7.46619V16.5108H9.59959V14.3774Z" fill="#4D5AE5"></path>
            <path id="Vector_18" d="M49.4295 28.3189C48.8546 27.5434 48.0109 27.0443 47.053 26.9098C46.0908 26.7733 45.1414 27.026 44.3734 27.6138L41.8699 29.5327L41.8688 29.5338L38.0734 32.368L35.3577 31.2864C40.2004 29.1136 43.585 24.2698 43.585 18.6462C43.585 11.0002 37.3396 4.77933 29.6627 4.77933C21.9858 4.77933 15.7405 11.0002 15.7405 18.6462C15.7405 21.4175 16.5692 23.9945 17.9805 26.163L12.4529 26.115C12.4497 26.115 12.4465 26.115 12.4433 26.115C12.4262 26.115 12.4124 26.1235 12.3964 26.1247C12.2908 26.1289 12.1873 26.1503 12.086 26.1865C12.0604 26.1962 12.0338 26.2015 12.0093 26.2132C11.9965 26.2185 11.9837 26.2195 11.9709 26.2259L5.50468 29.4185C5.50356 29.4185 5.50256 29.4185 5.50256 29.4195L1.71575 31.2405C1.67412 31.2586 1.6315 31.2831 1.58987 31.3109C0.0804746 32.3156 -0.433659 34.289 0.393104 35.9018C0.833611 36.7594 1.5835 37.391 2.50514 37.68C2.86039 37.7908 3.22302 37.8453 3.58353 37.8453C4.16279 37.8453 4.73667 37.7035 5.26243 37.423L8.03798 35.9467L12.566 33.6085L15.2797 33.5925L4.39629 44.4237C4.39529 44.4248 4.39417 44.4248 4.39304 44.4258L1.71563 47.0925C1.08312 47.7219 0.73536 48.557 0.73536 49.4478C0.73536 50.3374 1.08312 51.1747 1.71563 51.8052C2.36526 52.4516 3.21965 52.7758 4.07404 52.7758C4.92955 52.7758 5.78281 52.4516 6.43457 51.8052L9.06287 49.1875L12.5445 46.588L14.3462 48.3821L10.8229 51.8904C10.8219 51.8916 10.8208 51.8916 10.8196 51.8926L8.14223 54.5592C7.50972 55.1886 7.16196 56.0237 7.16196 56.9145C7.16196 57.8041 7.50972 58.6414 8.14223 59.2719C8.79186 59.9183 9.64738 60.2426 10.5018 60.2426C11.3562 60.2426 12.2117 59.9183 12.8623 59.2719L15.5407 56.6052L19.8255 52.3386C19.8267 52.3374 19.8267 52.3364 19.8277 52.3353L21.8469 50.3353L21.8394 50.3278C21.8522 50.315 21.8703 50.3106 21.8832 50.2969L32.2151 38.9805L39.1571 39.9682C39.2072 39.9757 39.2573 39.9789 39.3075 39.9789C39.4366 39.9789 39.5613 39.948 39.6819 39.9021C39.7171 39.8894 39.748 39.8722 39.7811 39.8552C39.8195 39.836 39.86 39.8254 39.8964 39.8009L46.3231 35.5342C46.3466 35.5182 46.3593 35.4925 46.3817 35.4755C46.4073 35.4553 46.4393 35.4468 46.4627 35.4243L49.0056 33.0424C50.3288 31.8026 50.5111 29.7717 49.4295 28.3189ZM4.26079 35.5403C3.91416 35.7259 3.52053 35.7632 3.14402 35.6438C2.77064 35.5275 2.46776 35.2725 2.29063 34.928C1.9685 34.3008 2.15513 33.537 2.71939 33.1243L5.34668 31.8602L5.97919 33.7088L6.24482 34.4853L4.26079 35.5403ZM11.255 31.8849L8.15848 33.4849L7.64759 31.9915L7.28071 30.9184L11.3342 28.9172L11.255 31.8849ZM41.4539 18.644C41.4539 20.4808 41.0155 22.2132 40.256 23.763L31.8932 19.9646C31.8057 18.8179 31.2106 17.8142 30.3167 17.189L33.2447 7.46837C38.0001 8.98102 41.4539 13.4173 41.4539 18.644ZM17.876 18.644C17.876 12.1746 23.1646 6.91049 29.6649 6.91049C30.1706 6.91049 30.6655 6.95311 31.1551 7.01499L28.291 16.5224C28.2527 16.5213 28.2164 16.5106 28.1769 16.5106C26.1118 16.5106 24.4317 18.1853 24.4317 20.2441C24.4317 22.3027 26.1118 23.9775 28.1769 23.9775C29.5657 23.9775 30.7657 23.2106 31.4132 22.0883L39.1381 25.5978C36.9887 28.4906 33.5486 30.3776 29.6648 30.3776C23.1646 30.3776 17.876 25.1135 17.876 18.644ZM29.7887 20.2441C29.7887 21.1262 29.0654 21.8441 28.1769 21.8441C27.2884 21.8441 26.5651 21.1262 26.5651 20.2441C26.5651 19.3619 27.2884 18.644 28.1769 18.644C29.0654 18.644 29.7887 19.3619 29.7887 20.2441ZM4.92968 50.2925C4.45717 50.7608 3.69228 50.7598 3.2209 50.2936C2.99365 50.0664 2.86889 49.7668 2.86889 49.4478C2.86889 49.1299 2.99365 48.8301 3.2209 48.6051L5.14505 46.6882L6.84746 48.3832L4.92968 50.2925ZM11.3574 57.7594C10.8849 58.2276 10.119 58.2288 9.6475 57.7605C9.42025 57.5333 9.29549 57.2336 9.29549 56.9146C9.29549 56.5967 9.42025 56.297 9.6475 56.072L11.5729 54.1541L12.3783 54.9552L13.2764 55.8491L11.3574 57.7594ZM18.3208 50.8217C18.3196 50.8227 18.3186 50.8227 18.3175 50.8238L14.7878 54.3438L13.9824 53.5427L13.0843 52.6488L16.6107 49.1384C16.6107 49.1384 16.6107 49.1384 16.6107 49.1374C16.6119 49.1363 16.6129 49.1363 16.614 49.1353C16.694 49.0553 16.7441 48.9593 16.7932 48.8644C16.8071 48.8366 16.8337 48.8131 16.8455 48.7844C16.8786 48.7023 16.8839 48.6138 16.8967 48.5272C16.9031 48.4781 16.9245 48.4324 16.9245 48.3821C16.9245 48.3106 16.8989 48.2414 16.884 48.1709C16.8712 48.1069 16.8712 48.0417 16.8466 47.98C16.8061 47.8797 16.7367 47.7912 16.6642 47.7047C16.644 47.6812 16.6365 47.6514 16.6141 47.629C16.6141 47.629 16.6141 47.629 16.613 47.629C16.6119 47.628 16.6119 47.6257 16.6109 47.6247L13.3969 44.4247C13.3628 44.3906 13.3191 44.3767 13.2807 44.3479C13.2242 44.3042 13.1698 44.2637 13.1068 44.2327C13.0461 44.2028 12.9842 44.1847 12.9202 44.1676C12.8519 44.1483 12.7858 44.1334 12.7143 44.1281C12.6492 44.1238 12.5884 44.1302 12.5234 44.1377C12.4519 44.1462 12.3848 44.1558 12.3154 44.1782C12.2482 44.1996 12.1885 44.2326 12.1267 44.2678C12.0872 44.2902 12.0424 44.2977 12.005 44.3254L8.45836 46.973L6.6567 45.1788L11.4547 40.4065L20.1759 48.9838L18.3208 50.8217ZM31.9584 36.7883C31.9275 36.7841 31.8986 36.7958 31.8677 36.7937C31.7898 36.7894 31.7152 36.7948 31.6373 36.8076C31.5766 36.8182 31.519 36.8299 31.4613 36.8502C31.3931 36.8737 31.3312 36.9057 31.2682 36.9441C31.2085 36.9803 31.1541 37.0187 31.1018 37.0667C31.0762 37.0891 31.0453 37.0998 31.0218 37.1253L21.6253 47.4167L12.9692 38.9035L18.6354 33.2671C19.0525 32.8511 19.0546 32.1759 18.6386 31.7577C18.4285 31.5476 18.1523 31.4441 17.876 31.4452V31.4442L13.4386 31.4709L13.4941 28.2559L19.7022 28.3093C22.2323 30.8971 25.7609 32.511 29.6649 32.511C30.5396 32.511 31.393 32.4204 32.2239 32.2656C32.3039 32.3296 32.3827 32.3948 32.4831 32.4353L37.3024 34.3553L37.6074 35.8721L37.9637 37.6427L31.9584 36.7883ZM40.0406 37.1446L39.4145 34.0288L42.3073 31.8687L43.0647 32.8735L44.2007 34.3818L40.0406 37.1446ZM47.5478 31.4826L45.8721 33.0528L44.0097 30.5802L45.6726 29.3056C45.9829 29.0667 46.3745 28.9696 46.7585 29.0197C47.1446 29.0741 47.486 29.2757 47.7185 29.5882C48.1516 30.1717 48.078 30.9856 47.5478 31.4826Z" fill="#2E2F42"></path>
            <path id="Vector_19" d="M27.2041 37.0881L22.9182 32.8214C22.5033 32.4065 21.829 32.4065 21.413 32.8214L17.1282 37.0881C16.9277 37.2897 16.8146 37.5606 16.8146 37.8443C16.8146 38.1281 16.9266 38.4001 17.1282 38.6006L21.413 42.8673C21.621 43.0742 21.8942 43.1777 22.1662 43.1777C22.4382 43.1777 22.7112 43.0742 22.9182 42.8673L27.2041 38.6006C27.4046 38.4001 27.5187 38.1281 27.5187 37.8443C27.5187 37.5606 27.4056 37.2886 27.2041 37.0881ZM22.1662 40.606L19.3927 37.8443L22.1662 35.0827L24.9406 37.8443L22.1662 40.606Z" fill="#2E2F42"></path>
            <path id="Vector_20" d="M34.3285 10.1415L33.8132 12.2131C33.9551 12.2483 37.2885 13.1166 37.2885 16.5108H39.4219C39.4218 12.4765 36.0906 10.5799 34.3285 10.1415Z" fill="#2E2F42"></path>
        </symbol>

        <symbol id="ig" width="40" height="40" viewbox="0 0 40 40" fill="none">
            <path d="M40 19.9999C40 25.5228 37.7614 30.5228 34.1421 34.1421C30.5228 37.7614 25.5228 39.9999 20 39.9999C14.4772 39.9999 9.47715 37.7614 5.85786 34.1421C2.23858 30.5228 0 25.5228 0 19.9999C0 14.4771 2.23858 9.47709 5.85786 5.8578C9.47715 2.23852 14.4772 -6.10352e-05 20 -6.10352e-05C25.5228 -6.10352e-05 30.5228 2.23852 34.1421 5.8578C37.7614 9.47709 40 14.4771 40 19.9999Z" fill="#4D5AE5"></path>
            <path d="M27.9843 16.704C27.9468 15.8538 27.8093 15.2694 27.6124 14.7629C27.4092 14.2253 27.0967 13.7441 26.6872 13.344C26.2871 12.9376 25.8026 12.6219 25.2713 12.4219C24.7619 12.225 24.1805 12.0875 23.3303 12.05C22.4738 12.0093 22.2019 11.9999 20.0296 11.9999C17.8573 11.9999 17.5854 12.0093 16.7321 12.0468C15.882 12.0843 15.2975 12.2219 14.7912 12.4187C14.2535 12.6219 13.7722 12.9344 13.3721 13.344C12.9658 13.7441 12.6501 14.2285 12.45 14.7599C12.2531 15.2694 12.1156 15.8507 12.0781 16.7008C12.0375 17.5573 12.0281 17.8292 12.0281 20.0015C12.0281 22.1738 12.0375 22.4457 12.075 23.299C12.1124 24.1492 12.25 24.7336 12.447 25.2401C12.6501 25.7777 12.9658 26.259 13.3721 26.6591C13.7722 27.0654 14.2567 27.3811 14.788 27.5811C15.2975 27.778 15.8788 27.9155 16.7291 27.953C17.5823 27.9906 17.8543 27.9999 20.0266 27.9999C22.1989 27.9999 22.4708 27.9906 23.3241 27.953C24.1742 27.9155 24.7587 27.778 25.265 27.5811C26.3403 27.1654 27.1904 26.3152 27.6062 25.2401C27.803 24.7306 27.9406 24.1492 27.9781 23.299C28.0156 22.4457 28.025 22.1738 28.025 20.0015C28.025 17.8292 28.0218 17.5573 27.9843 16.704ZM26.5435 23.2365C26.509 24.0179 26.3778 24.4399 26.2684 24.7212C25.9995 25.4182 25.4463 25.9714 24.7493 26.2403C24.468 26.3497 24.043 26.4809 23.2646 26.5152C22.4207 26.5528 22.1676 26.5621 20.0328 26.5621C17.898 26.5621 17.6417 26.5528 16.8009 26.5152C16.0195 26.4809 15.5975 26.3497 15.3162 26.2403C14.9693 26.1121 14.6536 25.9089 14.3973 25.6432C14.1316 25.3838 13.9285 25.0712 13.8003 24.7243C13.6909 24.443 13.5596 24.0179 13.5253 23.2397C13.4877 22.3958 13.4784 22.1425 13.4784 20.0077C13.4784 17.8729 13.4877 17.6166 13.5253 16.7759C13.5596 15.9945 13.6909 15.5725 13.8003 15.2912C13.9285 14.9442 14.1316 14.6286 14.4005 14.3722C14.6598 14.1066 14.9724 13.9034 15.3194 13.7753C15.6007 13.6659 16.0258 13.5347 16.804 13.5002C17.6479 13.4627 17.9012 13.4533 20.0359 13.4533C22.1738 13.4533 22.4269 13.4627 23.2678 13.5002C24.0492 13.5347 24.4712 13.6659 24.7525 13.7753C25.0993 13.9034 25.4151 14.1066 25.6714 14.3722C25.937 14.6317 26.1402 14.9442 26.2684 15.2912C26.3778 15.5725 26.509 15.9975 26.5435 16.7759C26.581 17.6198 26.5904 17.8729 26.5904 20.0077C26.5904 22.1425 26.581 22.3926 26.5435 23.2365Z" fill="#F4F4FD"></path>
            <path d="M20.0297 15.8913C17.7606 15.8913 15.9195 17.7322 15.9195 20.0015C15.9195 22.2707 17.7606 24.1117 20.0297 24.1117C22.2989 24.1117 24.1398 22.2707 24.1398 20.0015C24.1398 17.7322 22.2989 15.8913 20.0297 15.8913ZM20.0297 22.6676C18.5576 22.6676 17.3635 21.4737 17.3635 20.0015C17.3635 18.5293 18.5576 17.3353 20.0297 17.3353C21.5019 17.3353 22.6958 18.5293 22.6958 20.0015C22.6958 21.4737 21.5019 22.6676 20.0297 22.6676Z" fill="#F4F4FD"></path>
            <path d="M25.262 15.7288C25.262 16.2587 24.8324 16.6884 24.3024 16.6884C23.7725 16.6884 23.3428 16.2587 23.3428 15.7288C23.3428 15.1988 23.7725 14.7693 24.3024 14.7693C24.8324 14.7693 25.262 15.1988 25.262 15.7288Z" fill="#F4F4FD"></path>
        </symbol>

        <symbol id="ig_stroke" width="16" height="16" viewBox="0 0 16 16" fill="none">
        <g clip-path="url(#clip0_586386_341)">
        <path d="M15.9843 4.70398C15.9468 3.85384 15.8093 3.26938 15.6124 2.76293C15.4092 2.22535 15.0967 1.74405 14.6872 1.34395C14.2871 0.937622 13.8026 0.621887 13.2713 0.421896C12.7619 0.224959 12.1805 0.0874805 11.3303 0.0499976C10.4738 0.00934021 10.2019 -6.10352e-05 8.02963 -6.10352e-05C5.85733 -6.10352e-05 5.58543 0.00934021 4.73212 0.0468231C3.88197 0.084306 3.29751 0.221906 2.79119 0.418722C2.25348 0.621887 1.77219 0.934448 1.37209 1.34395C0.965758 1.74405 0.650145 2.22852 0.450033 2.75988C0.253096 3.26938 0.115618 3.85067 0.0781347 4.70081C0.0374774 5.5573 0.0280762 5.8292 0.0280762 8.0015C0.0280762 10.1738 0.0374774 10.4457 0.0749603 11.299C0.112443 12.1492 0.250043 12.7336 0.446981 13.2401C0.650145 13.7777 0.965758 14.259 1.37209 14.6591C1.77219 15.0654 2.25666 15.3811 2.78801 15.5811C3.29751 15.778 3.8788 15.9155 4.72906 15.953C5.58226 15.9906 5.85428 15.9999 8.02658 15.9999C10.1989 15.9999 10.4708 15.9906 11.3241 15.953C12.1742 15.9155 12.7587 15.778 13.265 15.5811C14.3403 15.1654 15.1904 14.3152 15.6062 13.2401C15.803 12.7306 15.9406 12.1492 15.9781 11.299C16.0156 10.4457 16.025 10.1738 16.025 8.0015C16.025 5.8292 16.0218 5.5573 15.9843 4.70398ZM14.5435 11.2365C14.509 12.0179 14.3778 12.4399 14.2684 12.7212C13.9995 13.4182 13.4463 13.9714 12.7493 14.2403C12.468 14.3497 12.043 14.4809 11.2646 14.5152C10.4207 14.5528 10.1676 14.5621 8.03281 14.5621C5.89799 14.5621 5.64172 14.5528 4.80085 14.5152C4.01945 14.4809 3.5975 14.3497 3.31619 14.2403C2.96932 14.1121 2.65359 13.9089 2.39731 13.6432C2.13163 13.3838 1.92847 13.0712 1.80027 12.7243C1.69087 12.443 1.55962 12.0179 1.52532 11.2397C1.48771 10.3958 1.47843 10.1425 1.47843 8.00773C1.47843 5.87291 1.48771 5.61664 1.52532 4.7759C1.55962 3.99449 1.69087 3.57254 1.80027 3.29123C1.92847 2.94424 2.13163 2.62863 2.40049 2.37223C2.65981 2.10655 2.97237 1.90339 3.31937 1.77531C3.60067 1.66591 4.0258 1.53466 4.80403 1.50023C5.64794 1.46275 5.90117 1.45335 8.03586 1.45335C10.1738 1.45335 10.4269 1.46275 11.2678 1.50023C12.0492 1.53466 12.4712 1.66591 12.7525 1.77531C13.0993 1.90339 13.4151 2.10655 13.6714 2.37223C13.937 2.63168 14.1402 2.94424 14.2684 3.29123C14.3778 3.57254 14.509 3.99755 14.5435 4.7759C14.581 5.61981 14.5904 5.87291 14.5904 8.00773C14.5904 10.1425 14.581 10.3926 14.5435 11.2365Z" fill="#F4F4FD"/>
        <path d="M8.02967 3.8913C5.76055 3.8913 3.91949 5.73223 3.91949 8.00147C3.91949 10.2707 5.76055 12.1117 8.02967 12.1117C10.2989 12.1117 12.1398 10.2707 12.1398 8.00147C12.1398 5.73223 10.2989 3.8913 8.02967 3.8913ZM8.02967 10.6676C6.55758 10.6676 5.3635 9.47368 5.3635 8.00147C5.3635 6.52926 6.55758 5.3353 8.02967 5.3353C9.50188 5.3353 10.6958 6.52926 10.6958 8.00147C10.6958 9.47368 9.50188 10.6676 8.02967 10.6676Z" fill="#F4F4FD"/>
        <path d="M13.262 3.72883C13.262 4.25872 12.8324 4.68837 12.3024 4.68837C11.7725 4.68837 11.3428 4.25872 11.3428 3.72883C11.3428 3.19882 11.7725 2.76929 12.3024 2.76929C12.8324 2.76929 13.262 3.19882 13.262 3.72883Z" fill="#F4F4FD"/>
        </g>
        <defs>
        <clipPath id="clip0_586386_341">
        <rect width="16" height="16" fill="white"/>
        </clipPath>
        </defs>
        </symbol>

        <symbol id="twitter" width="40" height="40" viewbox="0 0 40 40" fill="none" >
            <path d="M40 19.9999C40 25.5228 37.7614 30.5228 34.1421 34.1421C30.5228 37.7614 25.5228 39.9999 20 39.9999C14.4772 39.9999 9.47715 37.7614 5.85786 34.1421C2.23858 30.5228 0 25.5228 0 19.9999C0 14.4771 2.23858 9.47709 5.85786 5.8578C9.47715 2.23852 14.4772 -6.10352e-05 20 -6.10352e-05C25.5228 -6.10352e-05 30.5228 2.23852 34.1421 5.8578C37.7614 9.47709 40 14.4771 40 19.9999Z" fill="#4D5AE5"></path>
            <path d="M28 15.0389C27.405 15.2999 26.771 15.4729 26.11 15.5569C26.79 15.1509 27.309 14.5129 27.553 13.7439C26.919 14.1219 26.219 14.3889 25.473 14.5379C24.871 13.8969 24.013 13.4999 23.077 13.4999C21.261 13.4999 19.799 14.9739 19.799 16.7809C19.799 17.0409 19.821 17.2909 19.875 17.5289C17.148 17.3959 14.735 16.0889 13.114 14.0979C12.831 14.5889 12.665 15.1509 12.665 15.7559C12.665 16.8919 13.25 17.8989 14.122 18.4819C13.595 18.4719 13.078 18.3189 12.64 18.0779C12.64 18.0879 12.64 18.1009 12.64 18.1139C12.64 19.7079 13.777 21.0319 15.268 21.3369C15.001 21.4099 14.71 21.4449 14.408 21.4449C14.198 21.4449 13.986 21.4329 13.787 21.3889C14.212 22.6879 15.418 23.6429 16.852 23.6739C15.736 24.5469 14.319 25.0729 12.785 25.0729C12.516 25.0729 12.258 25.0609 12 25.0279C13.453 25.9649 15.175 26.4999 17.032 26.4999C23.068 26.4999 26.368 21.4999 26.368 17.1659C26.368 17.0209 26.363 16.8809 26.356 16.7419C27.007 16.2799 27.554 15.7029 28 15.0389Z" fill="#F4F4FD"></path>
        </symbol>

        <symbol id="twitter_stroke" width="16" height="16" viewBox="0 0 16 16" fill="none">
        <g clip-path="url(#clip0_586386_347)">
            <path d="M16 3.03894C15.405 3.29994 14.771 3.47294 14.11 3.55694C14.79 3.15094 15.309 2.51294 15.553 1.74394C14.919 2.12194 14.219 2.38894 13.473 2.53794C12.871 1.89694 12.013 1.49994 11.077 1.49994C9.261 1.49994 7.799 2.97394 7.799 4.78094C7.799 5.04094 7.821 5.29094 7.875 5.52894C5.148 5.39594 2.735 4.08894 1.114 2.09794C0.831 2.58894 0.665 3.15094 0.665 3.75594C0.665 4.89194 1.25 5.89894 2.122 6.48194C1.595 6.47194 1.078 6.31894 0.64 6.07794C0.64 6.08794 0.64 6.10094 0.64 6.11394C0.64 7.70794 1.777 9.03194 3.268 9.33694C3.001 9.40994 2.71 9.44494 2.408 9.44494C2.198 9.44494 1.986 9.43294 1.787 9.38894C2.212 10.6879 3.418 11.6429 4.852 11.6739C3.736 12.5469 2.319 13.0729 0.785 13.0729C0.516 13.0729 0.258 13.0609 0 13.0279C1.453 13.9649 3.175 14.4999 5.032 14.4999C11.068 14.4999 14.368 9.49994 14.368 5.16594C14.368 5.02094 14.363 4.88094 14.356 4.74194C15.007 4.27994 15.554 3.70294 16 3.03894Z" fill="#F4F4FD"/>
        </g>
        <defs>
            <clipPath id="clip0_586386_347">
            <rect width="16" height="16" fill="white"/>
            </clipPath>
        </defs>
        </symbol>

        <symbol id="facebook" width="40" height="40" viewbox="0 0 40 40" fill="none">
            <path d="M40 19.9999C40 25.5228 37.7614 30.5228 34.1421 34.1421C30.5228 37.7614 25.5228 39.9999 20 39.9999C14.4772 39.9999 9.47715 37.7614 5.85786 34.1421C2.23858 30.5228 0 25.5228 0 19.9999C0 14.4771 2.23858 9.47709 5.85786 5.8578C9.47715 2.23852 14.4772 -6.10352e-05 20 -6.10352e-05C25.5228 -6.10352e-05 30.5228 2.23852 34.1421 5.8578C37.7614 9.47709 40 14.4771 40 19.9999Z" fill="#4D5AE5"></path>
            <path d="M22.6646 14.6566H24.1253V12.1126C23.8733 12.0779 23.0066 11.9999 21.9973 11.9999C19.8913 11.9999 18.4486 13.3246 18.4486 15.7593V17.9999H16.1246V20.8439H18.4486V27.9999H21.298V20.8446H23.528L23.882 18.0006H21.2973V16.0413C21.298 15.2193 21.5193 14.6566 22.6646 14.6566Z" fill="#F4F4FD"></path>
        </symbol>

        <symbol id="facebook_stroke" width="16" height="16" viewBox="0 0 16 16" fill="none">
        <g clip-path="url(#clip0_586386_353)">
            <path d="M10.6646 2.65661H12.1253V0.112606C11.8733 0.077939 11.0066 -6.10352e-05 9.9973 -6.10352e-05C7.8913 -6.10352e-05 6.44863 1.32461 6.44863 3.75927V5.99994H4.12463V8.84394H6.44863V15.9999H9.29797V8.84461H11.528L11.882 6.00061H9.2973V4.04127C9.29797 3.21927 9.5193 2.65661 10.6646 2.65661Z" fill="#F4F4FD"/>
        </g>
        <defs>
            <clipPath id="clip0_586386_353">
            <rect width="16" height="16" fill="white"/>
            </clipPath>
        </defs>
        </symbol>

        <symbol id="linkedin" width="40" height="40" viewbox="0 0 40 40" fill="none">
            <path d="M40 19.9999C40 25.5228 37.7614 30.5228 34.1421 34.1421C30.5228 37.7614 25.5228 39.9999 20 39.9999C14.4772 39.9999 9.47715 37.7614 5.85786 34.1421C2.23858 30.5228 0 25.5228 0 19.9999C0 14.4771 2.23858 9.47709 5.85786 5.8578C9.47715 2.23852 14.4772 -6.10352e-05 20 -6.10352e-05C25.5228 -6.10352e-05 30.5228 2.23852 34.1421 5.8578C37.7614 9.47709 40 14.4771 40 19.9999Z" fill="#4D5AE5"></path>
            <path d="M27.996 28V27.9993H28V22.1313C28 19.2606 27.382 17.0493 24.026 17.0493C22.4126 17.0493 21.33 17.9346 20.888 18.774H20.8413V17.3173H17.6593V27.9993H20.9726V22.71C20.9726 21.3173 21.2366 19.9706 22.9613 19.9706C24.6606 19.9706 24.686 21.56 24.686 22.7993V28H27.996Z" fill="#F4F4FD"></path>
            <path d="M12.264 17.3179H15.5814V27.9999H12.264V17.3179Z" fill="#F4F4FD"></path>
            <path d="M13.9213 11.9999C12.8607 11.9999 12 12.8606 12 13.9213C12 14.9819 12.8607 15.8606 13.9213 15.8606C14.982 15.8606 15.8427 14.9819 15.8427 13.9213C15.842 12.8606 14.9813 11.9999 13.9213 11.9999V11.9999Z" fill="#F4F4FD"></path>
        </symbol>

        <symbol id="linkedin_stroke" width="16" height="16" viewBox="0 0 16 16" fill="none">
        <g clip-path="url(#clip0_586386_357)">
            <path d="M15.996 16V15.9993H16V10.1313C16 7.26065 15.382 5.04932 12.026 5.04932C10.4126 5.04932 9.32997 5.93465 8.88797 6.77398H8.8413V5.31732H5.6593V15.9993H8.97264V10.71C8.97264 9.31732 9.23664 7.97065 10.9613 7.97065C12.6606 7.97065 12.686 9.55998 12.686 10.7993V16H15.996Z" fill="#F4F4FD"/>
            <path d="M0.264038 5.31793H3.58137V15.9999H0.264038V5.31793Z" fill="#F4F4FD"/>
            <path d="M1.92133 -6.10352e-05C0.860667 -6.10352e-05 0 0.860606 0 1.92127C0 2.98194 0.860667 3.86061 1.92133 3.86061C2.982 3.86061 3.84267 2.98194 3.84267 1.92127C3.842 0.860606 2.98133 -6.10352e-05 1.92133 -6.10352e-05V-6.10352e-05Z" fill="#F4F4FD"/>
        </g>
        <defs>
            <clipPath id="clip0_586386_357">
            <rect width="16" height="16" fill="white"/>
            </clipPath>
        </defs>
        </symbol>

        <symbol id="c_one" viewBox="0 0 59 32">
            <path d="M21.714 4l4.004 3.815-7.433-0.004v18.51h19.429v-7.077l4 3.811v-19.054h-20zM37.538 18.796l-11.354-10.817h11.354v10.817zM34.013 23.613h-12.653v-12.449h0.894v11.606h11.759v0.843zM23.883 29.749l-0.472-0.97h-0.389l0.684 1.284v0.748h0.353v-0.748l0.684-1.284h-0.388l-0.472 0.97zM25.622 28.78h0.084l0.767 2.031h-0.368l-0.164-0.476h-0.786l-0.164 0.476h-0.367l0.765-2.031h0.234zM25.249 30.058h0.595l-0.298-0.862-0.297 0.862zM27.704 29.721c-0.015-0.020-0.030-0.038-0.044-0.057-0.052-0.069-0.093-0.135-0.121-0.2s-0.043-0.132-0.043-0.201c0-0.106 0.022-0.197 0.066-0.273s0.106-0.135 0.186-0.176c0.080-0.042 0.173-0.063 0.28-0.063 0.103 0 0.192 0.021 0.266 0.063 0.075 0.041 0.133 0.095 0.173 0.163s0.061 0.142 0.061 0.223c0 0.064-0.012 0.123-0.035 0.176s-0.055 0.101-0.096 0.145c-0.041 0.044-0.088 0.085-0.142 0.124l-0.141 0.103 0.402 0.475c0.013-0.026 0.025-0.053 0.036-0.082 0.034-0.089 0.052-0.188 0.052-0.297h0.29c0 0.099-0.010 0.192-0.029 0.28s-0.049 0.17-0.091 0.245c-0.017 0.031-0.036 0.061-0.058 0.090l0.298 0.351h-0.389l-0.118-0.139c-0.064 0.049-0.133 0.086-0.208 0.114-0.099 0.035-0.204 0.053-0.315 0.053-0.135 0-0.252-0.025-0.35-0.074s-0.175-0.117-0.229-0.204c-0.053-0.087-0.080-0.186-0.080-0.297 0-0.083 0.017-0.155 0.052-0.218s0.081-0.122 0.141-0.176c0.055-0.050 0.118-0.1 0.188-0.15zM27.871 29.925l-0.042 0.031c-0.049 0.040-0.086 0.079-0.11 0.116s-0.039 0.070-0.046 0.1c-0.008 0.031-0.011 0.058-0.011 0.081 0 0.059 0.013 0.113 0.038 0.162s0.064 0.087 0.113 0.116c0.050 0.028 0.111 0.042 0.183 0.042 0.077 0 0.152-0.017 0.225-0.052 0.036-0.018 0.071-0.039 0.103-0.064l-0.452-0.532zM27.951 29.554l0.125-0.084c0.059-0.039 0.1-0.077 0.126-0.114s0.038-0.086 0.038-0.142c0-0.048-0.019-0.093-0.056-0.134s-0.090-0.061-0.158-0.061c-0.047 0-0.087 0.011-0.12 0.034s-0.057 0.050-0.074 0.087c-0.016 0.035-0.024 0.075-0.024 0.119 0 0.042 0.011 0.085 0.032 0.13s0.051 0.090 0.088 0.138c0.008 0.010 0.015 0.020 0.023 0.029zM31.505 30.15h-0.349c-0.010 0.088-0.032 0.163-0.064 0.225s-0.079 0.106-0.141 0.138c-0.061 0.032-0.142 0.047-0.241 0.047-0.082 0-0.152-0.016-0.211-0.049s-0.107-0.079-0.145-0.138c-0.037-0.059-0.065-0.131-0.084-0.213s-0.026-0.177-0.026-0.279v-0.172c0-0.108 0.010-0.204 0.029-0.287s0.051-0.156 0.091-0.213c0.040-0.058 0.090-0.101 0.149-0.131s0.129-0.045 0.209-0.045c0.098 0 0.177 0.017 0.237 0.050s0.106 0.080 0.137 0.142c0.032 0.062 0.052 0.137 0.061 0.225h0.349c-0.014-0.136-0.052-0.256-0.114-0.361s-0.148-0.187-0.259-0.247c-0.112-0.060-0.248-0.089-0.41-0.089-0.127 0-0.242 0.022-0.345 0.067s-0.188 0.109-0.261 0.194c-0.073 0.084-0.128 0.185-0.167 0.303s-0.057 0.25-0.057 0.396v0.169c0 0.146 0.019 0.278 0.056 0.396s0.093 0.219 0.165 0.303c0.072 0.083 0.158 0.147 0.258 0.192s0.213 0.067 0.339 0.067c0.164 0 0.303-0.030 0.417-0.089s0.203-0.141 0.266-0.244c0.063-0.104 0.1-0.223 0.112-0.356zM33.443 29.851v-0.112c0-0.153-0.020-0.291-0.061-0.412s-0.097-0.226-0.172-0.311c-0.074-0.087-0.163-0.152-0.266-0.197s-0.218-0.068-0.343-0.068c-0.125 0-0.239 0.023-0.342 0.068s-0.191 0.11-0.266 0.197c-0.074 0.086-0.132 0.189-0.173 0.311s-0.061 0.258-0.061 0.412v0.112c0 0.154 0.020 0.291 0.061 0.413s0.1 0.226 0.176 0.311c0.075 0.086 0.164 0.151 0.266 0.197s0.217 0.067 0.342 0.067c0.126 0 0.24-0.022 0.343-0.067s0.192-0.111 0.265-0.197c0.074-0.086 0.132-0.189 0.172-0.311s0.060-0.259 0.060-0.413zM33.092 29.737v0.114c0 0.113-0.011 0.214-0.033 0.301s-0.053 0.161-0.095 0.222c-0.042 0.059-0.093 0.105-0.153 0.135s-0.13 0.045-0.208 0.045c-0.077 0-0.146-0.015-0.206-0.045s-0.113-0.076-0.156-0.135c-0.043-0.060-0.075-0.134-0.098-0.222s-0.033-0.188-0.033-0.301v-0.114c0-0.113 0.011-0.213 0.033-0.3s0.054-0.16 0.096-0.219c0.043-0.059 0.094-0.104 0.155-0.134s0.129-0.046 0.206-0.046 0.147 0.015 0.208 0.046c0.061 0.030 0.113 0.074 0.155 0.134s0.075 0.132 0.096 0.219c0.022 0.087 0.033 0.186 0.033 0.3z">
            </path>
        </symbol>

        <symbol id="c_two" viewBox="0 0 59 32">
            <path d="M28.636 3.391h-0.078c-0.12-0.007-0.24-0.010-0.36-0.013v0h-0.26c-0.227 0-0.458 0.006-0.688 0.017-0.017-0.001-0.035-0.001-0.052 0-2.082 0.118-4.123 0.638-6.009 1.533l-0.247 0.119v12.652l0.578-0.196c0.507-0.174 1.048-0.331 1.607-0.477 1.512-0.388 3.065-0.595 4.626-0.615v1.662c-0.207 0.002-0.408 0.007-0.609 0.017h-0.048c-1.201 0.066-2.393 0.249-3.559 0.546-1.477 0.37-2.901 0.925-4.24 1.652v-16.227c1.39-0.811 2.888-1.42 4.448-1.809 1.37-0.354 2.778-0.535 4.192-0.541h0.244c0.292 0.007 0.577 0.020 0.844 0.041 0.705 0.049 1.404 0.161 2.089 0.333v1.636c-0.666-0.155-1.342-0.257-2.024-0.305-0.014-0.001-0.028-0.002-0.041-0.004-0.141-0.012-0.282-0.024-0.414-0.024zM31.516 5.064c0.363 0.028 0.739 0.041 1.119 0.041 1.487-0.005 2.967-0.195 4.407-0.565 1.476-0.371 2.9-0.927 4.238-1.654v15.938c-1.391 0.81-2.889 1.419-4.449 1.809-1.37 0.352-2.778 0.533-4.192 0.539-1.072 0.009-2.14-0.117-3.18-0.375v-16.041c0.246 0.057 0.499 0.109 0.756 0.153 0.422 0.071 0.867 0.123 1.301 0.155zM39.627 5.187l-0.578 0.195c-0.532 0.179-1.068 0.339-1.608 0.481-1.57 0.403-3.183 0.61-4.804 0.616-0.377 0-0.724-0.010-1.060-0.032l-0.461-0.030v13.015l0.396 0.035c0.367 0.032 0.746 0.048 1.128 0.048 1.276-0.005 2.547-0.17 3.783-0.49 1.018-0.255 2.008-0.611 2.956-1.062l0.247-0.119v-12.656z"></path>
            <path d="M20.421 25.836c-0.083-0.086-0.183-0.154-0.294-0.199s-0.23-0.066-0.349-0.061c-0.127-0.002-0.253 0.022-0.372 0.070-0.108 0.043-0.207 0.108-0.289 0.19-0.082 0.083-0.145 0.182-0.186 0.291-0.045 0.114-0.068 0.236-0.067 0.359v2.168c-0.005 0.153 0.024 0.305 0.085 0.445 0.051 0.111 0.125 0.21 0.217 0.291 0.087 0.073 0.188 0.126 0.298 0.154 0.105 0.030 0.214 0.045 0.324 0.045 0.121 0.001 0.24-0.025 0.35-0.076 0.108-0.047 0.207-0.116 0.289-0.201 0.080-0.084 0.145-0.183 0.189-0.291 0.046-0.109 0.070-0.227 0.069-0.346v-0.243h-0.567v0.193c0.002 0.066-0.010 0.132-0.033 0.193-0.018 0.046-0.047 0.088-0.082 0.122-0.035 0.028-0.075 0.050-0.119 0.062-0.038 0.013-0.078 0.020-0.119 0.020-0.051 0.006-0.102-0.002-0.149-0.022s-0.087-0.053-0.117-0.094c-0.053-0.087-0.080-0.188-0.075-0.291v-2.021c-0.004-0.112 0.020-0.223 0.069-0.324 0.029-0.046 0.071-0.082 0.12-0.105s0.104-0.032 0.157-0.025c0.049-0.002 0.097 0.008 0.141 0.030s0.082 0.053 0.112 0.092c0.063 0.083 0.097 0.186 0.094 0.291v0.187h0.561v-0.221c0.001-0.13-0.022-0.258-0.069-0.379-0.042-0.114-0.106-0.217-0.189-0.305z"></path>
            <path d="M23.788 25.811c-0.181-0.153-0.409-0.237-0.645-0.238-0.115 0-0.23 0.021-0.338 0.061-0.11 0.039-0.212 0.1-0.299 0.177-0.094 0.084-0.169 0.188-0.22 0.304-0.057 0.132-0.085 0.276-0.082 0.42v2.079c-0.004 0.146 0.024 0.292 0.082 0.426 0.051 0.112 0.126 0.211 0.22 0.291 0.087 0.080 0.188 0.143 0.299 0.183 0.108 0.040 0.223 0.061 0.338 0.061s0.23-0.021 0.338-0.061c0.113-0.041 0.217-0.103 0.306-0.183 0.090-0.081 0.163-0.18 0.214-0.291 0.058-0.134 0.086-0.279 0.082-0.426v-2.079c0.003-0.144-0.025-0.288-0.082-0.42-0.050-0.115-0.123-0.218-0.214-0.304zM23.523 28.614c0.005 0.055-0.003 0.111-0.022 0.163s-0.050 0.099-0.090 0.138c-0.075 0.063-0.169 0.097-0.267 0.097s-0.192-0.034-0.267-0.097c-0.040-0.038-0.071-0.085-0.090-0.138s-0.027-0.108-0.022-0.163v-2.079c-0.005-0.055 0.003-0.111 0.022-0.163s0.050-0.099 0.090-0.138c0.075-0.063 0.169-0.097 0.267-0.097s0.192 0.034 0.267 0.097c0.040 0.038 0.071 0.085 0.090 0.138s0.027 0.108 0.022 0.163v2.079z"></path>
            <path d="M28.21 29.543v-3.936h-0.545l-0.716 2.084h-0.010l-0.721-2.084h-0.539v3.936h0.562v-2.395h0.010l0.551 1.693h0.28l0.555-1.693h0.010v2.395h0.562z"></path>
            <path d="M31.405 25.882c-0.087-0.097-0.196-0.171-0.318-0.215-0.132-0.043-0.269-0.063-0.408-0.061h-0.835v3.936h0.561v-1.537h0.289c0.175 0.008 0.349-0.029 0.506-0.108 0.128-0.071 0.234-0.175 0.308-0.301 0.065-0.105 0.109-0.221 0.129-0.343 0.022-0.148 0.032-0.298 0.030-0.448 0.006-0.189-0.013-0.378-0.055-0.562-0.037-0.136-0.108-0.261-0.207-0.362zM31.116 27.082c-0.002 0.071-0.020 0.141-0.052 0.205-0.032 0.061-0.083 0.109-0.145 0.138-0.083 0.037-0.174 0.054-0.265 0.049h-0.256v-1.338h0.289c0.087-0.004 0.174 0.013 0.253 0.049 0.058 0.033 0.104 0.084 0.132 0.145 0.031 0.069 0.047 0.144 0.049 0.219 0 0.083 0 0.17 0 0.262s0.006 0.186 0 0.27h-0.006z"></path>
            <path d="M34.062 25.606h-0.46l-0.867 3.936h0.561l0.165-0.846h0.765l0.165 0.846h0.561l-0.889-3.936zM33.544 28.161l0.276-1.427h0.010l0.275 1.427h-0.561z"></path>
            <path d="M37.686 27.978h-0.010l-0.847-2.371h-0.539v3.936h0.561v-2.367h0.012l0.857 2.367h0.528v-3.936h-0.561v2.371z"></path>
            <path d="M41.113 25.606l-0.451 1.565h-0.012l-0.451-1.565h-0.594l0.77 2.273v1.664h0.561v-1.664l0.77-2.273h-0.594z"></path>
            <path d="M18.857 30.654h0.27v0.759h0.184v-0.759h0.269v-0.155h-0.723v0.155z"></path>
            <path d="M21.13 30.498l-0.354 0.914h0.195l0.075-0.208h0.364l0.078 0.208h0.2l-0.363-0.914h-0.195zM21.101 31.051l0.124-0.339 0.124 0.339h-0.249z"></path>
            <path d="M23.376 31.076h0.211v0.118c-0.062 0.049-0.138 0.076-0.217 0.077-0.037 0.002-0.074-0.005-0.107-0.020s-0.063-0.038-0.086-0.067c-0.048-0.070-0.072-0.154-0.068-0.238 0-0.203 0.088-0.305 0.263-0.305 0.046-0.005 0.092 0.008 0.13 0.034s0.065 0.066 0.077 0.111l0.181-0.035c-0.039-0.179-0.168-0.269-0.387-0.269-0.117-0.003-0.232 0.039-0.319 0.118-0.046 0.045-0.082 0.1-0.104 0.161s-0.032 0.126-0.027 0.19c-0.005 0.125 0.036 0.248 0.117 0.343 0.045 0.046 0.099 0.082 0.159 0.105s0.124 0.033 0.188 0.029c0.143 0.004 0.282-0.048 0.387-0.145v-0.36h-0.396v0.154z"></path>
            <path d="M25.67 30.498h-0.185v0.914h0.64v-0.155h-0.455v-0.759z"></path>
            <path d="M27.61 30.498h-0.185v0.914h0.185v-0.914z"></path>
            <path d="M29.507 31.109l-0.374-0.61h-0.179v0.914h0.172v-0.597l0.367 0.597h0.184v-0.914h-0.169v0.61z"></path>
            <path d="M31.221 31.010h0.455v-0.155h-0.455v-0.201h0.49v-0.155h-0.675v0.914h0.694v-0.155h-0.509v-0.247z"></path>
            <path d="M35.378 30.859h-0.36v-0.36h-0.184v0.914h0.184v-0.4h0.36v0.4h0.184v-0.914h-0.184v0.36z"></path>
            <path d="M37.103 31.010h0.457v-0.155h-0.457v-0.201h0.492v-0.155h-0.675v0.914h0.692v-0.155h-0.509v-0.247z"></path>
            <path d="M39.442 31.010c0.159-0.025 0.24-0.109 0.24-0.254 0.005-0.039-0.001-0.078-0.017-0.114s-0.041-0.067-0.073-0.089c-0.083-0.042-0.175-0.060-0.267-0.054h-0.387v0.914h0.184v-0.382h0.036c0.039-0.002 0.078 0.005 0.114 0.020 0.027 0.017 0.049 0.040 0.065 0.067l0.2 0.291h0.22l-0.111-0.179c-0.049-0.088-0.119-0.163-0.202-0.219zM39.257 30.884h-0.136v-0.23h0.145c0.063-0.005 0.126 0.002 0.187 0.022 0.013 0.012 0.024 0.026 0.031 0.043s0.010 0.034 0.009 0.052c-0.001 0.018-0.006 0.035-0.014 0.051s-0.020 0.029-0.035 0.040c-0.060 0.018-0.124 0.026-0.187 0.022z"></path>
            <path d="M41.206 31.010h0.455v-0.155h-0.455v-0.201h0.492v-0.155h-0.676v0.914h0.694v-0.155h-0.509v-0.247z"></path>
        </symbol>

        <symbol id="c_three" viewBox="0 0 59 32">
            <path d="M21.034 28.128c0.009 0 0.018 0.002 0.027 0.005s0.016 0.008 0.022 0.014l0.126 0.119c-0.098 0.096-0.219 0.173-0.355 0.225-0.159 0.057-0.331 0.085-0.503 0.081-0.162 0.003-0.323-0.023-0.473-0.076-0.135-0.048-0.257-0.121-0.357-0.213-0.102-0.095-0.18-0.207-0.23-0.329-0.055-0.136-0.082-0.278-0.080-0.422-0.002-0.144 0.027-0.288 0.087-0.423 0.055-0.122 0.138-0.234 0.244-0.329 0.108-0.093 0.237-0.166 0.379-0.214 0.155-0.051 0.321-0.077 0.487-0.075 0.155-0.003 0.309 0.020 0.453 0.069 0.125 0.046 0.24 0.111 0.339 0.19l-0.106 0.127c-0.007 0.009-0.016 0.017-0.027 0.023-0.012 0.007-0.028 0.011-0.043 0.009-0.016-0.001-0.032-0.006-0.046-0.014l-0.057-0.034-0.079-0.043c-0.034-0.016-0.069-0.030-0.106-0.042-0.047-0.014-0.095-0.026-0.144-0.034-0.062-0.010-0.125-0.014-0.188-0.013-0.12-0.001-0.239 0.018-0.35 0.057-0.104 0.036-0.197 0.090-0.274 0.159-0.079 0.073-0.139 0.16-0.178 0.253-0.044 0.107-0.066 0.22-0.065 0.334-0.002 0.116 0.020 0.231 0.065 0.34 0.038 0.093 0.098 0.179 0.175 0.252 0.072 0.068 0.162 0.122 0.262 0.156 0.103 0.037 0.213 0.055 0.325 0.054 0.064 0.001 0.129-0.003 0.192-0.011 0.104-0.011 0.204-0.042 0.292-0.090 0.044-0.025 0.086-0.053 0.125-0.084 0.016-0.013 0.038-0.021 0.060-0.022z"></path>
            <path d="M24.678 27.532c0.002 0.143-0.027 0.285-0.085 0.419-0.051 0.122-0.132 0.233-0.238 0.326s-0.232 0.166-0.373 0.214c-0.309 0.101-0.65 0.101-0.959 0-0.14-0.049-0.266-0.122-0.371-0.214-0.105-0.095-0.187-0.206-0.24-0.329-0.114-0.271-0.114-0.568 0-0.84 0.054-0.122 0.135-0.235 0.24-0.33 0.106-0.090 0.232-0.16 0.371-0.206 0.308-0.102 0.651-0.102 0.959 0 0.14 0.049 0.267 0.122 0.372 0.214 0.104 0.094 0.185 0.204 0.238 0.325 0.058 0.135 0.087 0.278 0.085 0.422zM24.347 27.532c0.003-0.114-0.018-0.228-0.060-0.337-0.035-0.093-0.093-0.179-0.169-0.252-0.074-0.069-0.165-0.124-0.267-0.159-0.224-0.074-0.473-0.074-0.697 0-0.102 0.035-0.193 0.090-0.267 0.159-0.077 0.073-0.135 0.159-0.17 0.252-0.080 0.219-0.080 0.454 0 0.674 0.036 0.093 0.094 0.179 0.17 0.252 0.074 0.069 0.165 0.123 0.267 0.158 0.225 0.072 0.472 0.072 0.697 0 0.101-0.035 0.192-0.089 0.267-0.158 0.076-0.073 0.133-0.159 0.169-0.252 0.042-0.109 0.063-0.223 0.060-0.337z"></path>
            <path d="M27.164 27.885l0.033 0.076c0.013-0.027 0.024-0.051 0.036-0.076 0.012-0.025 0.026-0.050 0.041-0.074l0.806-1.252c0.016-0.022 0.030-0.035 0.046-0.039 0.021-0.006 0.044-0.008 0.066-0.007h0.238v2.036h-0.282v-1.497c0-0.019 0-0.040 0-0.063-0.002-0.023-0.002-0.047 0-0.070l-0.811 1.269c-0.010 0.019-0.027 0.035-0.047 0.046s-0.045 0.017-0.069 0.017h-0.046c-0.024 0-0.049-0.006-0.069-0.017s-0.037-0.027-0.047-0.047l-0.834-1.278c0 0.024 0 0.049 0 0.073s0 0.046 0 0.065v1.497h-0.273v-2.032h0.238c0.022-0.001 0.045 0.001 0.066 0.007 0.020 0.008 0.035 0.022 0.044 0.039l0.823 1.253c0.016 0.023 0.030 0.048 0.041 0.073z"></path>
            <path d="M30.197 27.784v0.763h-0.316v-2.034h0.704c0.133-0.002 0.265 0.013 0.393 0.044 0.102 0.025 0.197 0.068 0.278 0.127 0.070 0.055 0.124 0.123 0.158 0.199 0.037 0.083 0.055 0.171 0.054 0.26 0.001 0.089-0.018 0.178-0.058 0.26-0.038 0.078-0.096 0.148-0.17 0.203-0.081 0.061-0.176 0.107-0.279 0.135-0.123 0.034-0.251 0.049-0.38 0.047l-0.382-0.005zM30.197 27.566h0.382c0.083 0.001 0.165-0.010 0.244-0.031 0.065-0.019 0.125-0.049 0.177-0.088 0.047-0.037 0.084-0.083 0.107-0.135 0.026-0.054 0.039-0.113 0.038-0.171 0.004-0.056-0.007-0.113-0.032-0.166s-0.062-0.1-0.11-0.139c-0.12-0.080-0.272-0.119-0.424-0.109h-0.382v0.838z"></path>
            <path d="M34.437 28.549h-0.249c-0.025 0.001-0.050-0.006-0.069-0.019-0.018-0.013-0.032-0.029-0.041-0.047l-0.215-0.492h-1.077l-0.222 0.492c-0.008 0.018-0.022 0.034-0.039 0.046-0.020 0.014-0.045 0.021-0.071 0.020h-0.249l0.946-2.036h0.328l0.959 2.036zM32.875 27.793h0.89l-0.375-0.829c-0.029-0.062-0.052-0.126-0.071-0.191l-0.036 0.107c-0.011 0.032-0.024 0.062-0.035 0.086l-0.372 0.828z"></path>
            <path d="M35.8 26.522c0.019 0.009 0.035 0.021 0.047 0.036l1.38 1.535c0-0.024 0-0.049 0-0.071s0-0.046 0-0.067v-1.442h0.282v2.036h-0.158c-0.022 0.001-0.045-0.004-0.065-0.012-0.020-0.010-0.037-0.023-0.050-0.038l-1.379-1.534c0.002 0.023 0.002 0.047 0 0.070 0 0.023 0 0.043 0 0.062v1.451h-0.282v-2.036h0.167c0.020-0 0.039 0.003 0.057 0.009z"></path>
            <path d="M39.834 27.739v0.809h-0.316v-0.809l-0.872-1.226h0.282c0.024-0.001 0.048 0.005 0.068 0.018 0.017 0.013 0.032 0.029 0.043 0.046l0.546 0.791c0.022 0.034 0.041 0.065 0.057 0.094s0.028 0.058 0.039 0.086l0.041-0.088c0.015-0.032 0.033-0.063 0.054-0.093l0.538-0.797c0.011-0.016 0.025-0.030 0.041-0.043 0.019-0.014 0.043-0.021 0.068-0.020h0.285l-0.874 1.232z"></path>
            <path d="M27.008 23.095c0.137 0.015 0.276 0.027 0.416 0.038 2.128-0.813 3.929-2.145 5.176-3.828s1.887-3.643 1.838-5.634l-2.346-2.004c0.477 2.12 0.254 4.313-0.644 6.331s-2.436 3.783-4.441 5.098z"></path>
            <path d="M26.17 23.002l0.063 0.011c2.143-1.31 3.776-3.138 4.69-5.25s1.064-4.408 0.433-6.594l-3.341-2.854c1.351 2.346 1.895 4.972 1.568 7.572s-1.511 5.067-3.414 7.115z"></path>
            <path d="M37.5 16.024c-0.568 2.188-1.946 4.162-3.931 5.628-0.58 0.43-1.205 0.814-1.868 1.146 1.616-0.406 3.102-1.123 4.342-2.097s2.202-2.178 2.812-3.52l-1.355-1.156z"></path>
            <path d="M36.968 15.702l-1.929-1.648c-0.037 1.879-0.662 3.716-1.811 5.318s-2.779 2.914-4.721 3.796h0.009c0.433-0 0.865-0.022 1.295-0.066 1.815-0.633 3.418-1.64 4.667-2.931s2.104-2.827 2.489-4.469z"></path>
            <path d="M26.449 7.112l-2.301-1.969c-2.057 0.679-3.827 1.873-5.077 3.426s-1.922 3.392-1.928 5.276v0c0.008 2.082 0.828 4.103 2.331 5.742s3.603 2.803 5.967 3.308c2.111-2.197 3.346-4.912 3.528-7.75s-0.701-5.652-2.52-8.032z"></path>
            <path d="M42.286 15.399c-0.008-2.47-1.161-4.838-3.205-6.585s-4.815-2.732-7.707-2.739c-1.336-0.001-2.661 0.21-3.907 0.621l14.090 12.039c0.482-1.064 0.73-2.196 0.729-3.337z"></path>
        </symbol>

        <symbol id="c_four" viewBox="0 0 59 32">
            <path d="M13.759 12.296h-0.002c-1.363 0-2.468 0.996-2.468 2.225v0.001c0 1.229 1.105 2.225 2.468 2.225h0.002c1.363 0 2.468-0.996 2.468-2.225v-0.001c0-1.229-1.105-2.225-2.468-2.225z"></path>
            <path d="M31.978 11.585c-0.004-1.707-0.758-3.343-2.096-4.551s-3.153-1.887-5.047-1.891v0c-1.894 0.003-3.709 0.683-5.049 1.89s-2.094 2.844-2.098 4.552v9.414c0 0 14.288-1.435 14.289-9.412v-0.001z"></path>
            <path d="M6.286 24.088c0.003 1.188 0.528 2.326 1.46 3.166s2.194 1.314 3.511 1.317c1.317-0.003 2.579-0.477 3.511-1.317s1.456-1.978 1.46-3.165v-6.55c0 0-9.942 0.999-9.942 6.549zM11.257 25.262c-0.258 0-0.509-0.069-0.723-0.198s-0.381-0.312-0.479-0.527c-0.098-0.214-0.124-0.45-0.074-0.678s0.174-0.437 0.356-0.601c0.182-0.164 0.414-0.276 0.666-0.321s0.514-0.022 0.752 0.067c0.238 0.089 0.441 0.239 0.584 0.432s0.219 0.42 0.219 0.652c0.001 0.154-0.033 0.308-0.098 0.45s-0.161 0.273-0.282 0.382c-0.121 0.11-0.265 0.196-0.423 0.256s-0.328 0.090-0.499 0.090v-0.004z"></path>
            <path d="M20.348 23.151v2.438h-0.502v-2.438h0.502zM21.319 24.193v0.392h-1.108v-0.392h1.108zM21.436 23.151v0.393h-1.225v-0.393h1.225zM23.73 24.313v0.116c0 0.185-0.025 0.352-0.075 0.499s-0.121 0.273-0.213 0.377c-0.091 0.103-0.201 0.181-0.328 0.236-0.126 0.055-0.266 0.082-0.42 0.082-0.153 0-0.293-0.027-0.42-0.082-0.126-0.055-0.235-0.133-0.328-0.236-0.093-0.104-0.165-0.229-0.216-0.377-0.050-0.147-0.075-0.314-0.075-0.499v-0.116c0-0.186 0.025-0.353 0.075-0.499 0.050-0.147 0.121-0.273 0.213-0.377 0.093-0.104 0.202-0.183 0.328-0.238 0.127-0.055 0.267-0.082 0.42-0.082 0.154 0 0.294 0.027 0.42 0.082 0.127 0.055 0.237 0.134 0.328 0.238 0.093 0.104 0.164 0.229 0.214 0.377 0.051 0.146 0.077 0.313 0.077 0.499zM23.222 24.429v-0.119c0-0.13-0.012-0.243-0.035-0.342s-0.058-0.181-0.104-0.248c-0.046-0.067-0.102-0.117-0.167-0.151-0.066-0.035-0.141-0.052-0.226-0.052s-0.16 0.017-0.226 0.052c-0.065 0.034-0.12 0.084-0.166 0.151-0.045 0.067-0.079 0.15-0.102 0.248s-0.035 0.212-0.035 0.342v0.119c0 0.128 0.012 0.242 0.035 0.342 0.023 0.098 0.058 0.181 0.104 0.249 0.046 0.067 0.102 0.118 0.167 0.152s0.141 0.052 0.226 0.052c0.085 0 0.16-0.017 0.226-0.052s0.121-0.085 0.166-0.152c0.045-0.068 0.079-0.151 0.102-0.249 0.023-0.099 0.035-0.213 0.035-0.342zM25.36 24.951c0-0.044-0.007-0.083-0.020-0.117-0.012-0.036-0.036-0.068-0.070-0.097-0.035-0.030-0.083-0.060-0.146-0.089s-0.143-0.059-0.243-0.090c-0.11-0.036-0.215-0.076-0.315-0.12-0.098-0.045-0.185-0.097-0.261-0.156-0.075-0.060-0.134-0.13-0.177-0.209-0.042-0.079-0.064-0.171-0.064-0.276 0-0.102 0.022-0.194 0.067-0.276 0.045-0.084 0.107-0.155 0.188-0.214 0.080-0.060 0.175-0.107 0.285-0.139 0.11-0.032 0.232-0.049 0.363-0.049 0.18 0 0.337 0.032 0.47 0.097s0.238 0.153 0.311 0.266c0.075 0.113 0.112 0.242 0.112 0.387h-0.499c0-0.071-0.015-0.134-0.045-0.188-0.029-0.055-0.074-0.098-0.134-0.129-0.059-0.031-0.134-0.047-0.224-0.047-0.087 0-0.16 0.013-0.218 0.040-0.058 0.026-0.102 0.061-0.131 0.105-0.029 0.044-0.044 0.093-0.044 0.147 0 0.041 0.010 0.079 0.030 0.112 0.021 0.034 0.052 0.065 0.094 0.094s0.092 0.056 0.152 0.082 0.13 0.051 0.209 0.075c0.133 0.040 0.249 0.085 0.35 0.136 0.102 0.050 0.186 0.107 0.254 0.169s0.119 0.133 0.154 0.213c0.035 0.079 0.052 0.169 0.052 0.27 0 0.106-0.021 0.201-0.062 0.285s-0.101 0.155-0.179 0.213c-0.078 0.058-0.171 0.102-0.28 0.132s-0.229 0.045-0.363 0.045c-0.12 0-0.239-0.016-0.357-0.047-0.117-0.032-0.224-0.081-0.32-0.146-0.095-0.065-0.171-0.147-0.228-0.248s-0.085-0.219-0.085-0.357h0.504c0 0.076 0.012 0.14 0.035 0.193s0.056 0.095 0.099 0.127c0.044 0.032 0.095 0.056 0.154 0.070 0.060 0.014 0.126 0.022 0.198 0.022 0.087 0 0.158-0.012 0.214-0.037 0.057-0.025 0.099-0.059 0.126-0.102 0.028-0.044 0.042-0.093 0.042-0.147zM27.294 23.151v2.438h-0.501v-2.438h0.501zM28.044 23.151v0.393h-1.989v-0.393h1.989zM29.966 25.197v0.392h-1.297v-0.392h1.297zM28.832 23.151v2.438h-0.502v-2.438h0.502zM29.797 24.144v0.382h-1.128v-0.382h1.128zM29.964 23.151v0.393h-1.296v-0.393h1.296zM30.259 23.151h0.909c0.186 0 0.346 0.028 0.48 0.084 0.135 0.056 0.239 0.138 0.311 0.248s0.109 0.244 0.109 0.404c0 0.131-0.022 0.243-0.067 0.337-0.044 0.093-0.105 0.17-0.186 0.233-0.079 0.061-0.172 0.11-0.28 0.147l-0.159 0.084h-0.79l-0.003-0.392h0.588c0.088 0 0.161-0.016 0.219-0.047s0.102-0.075 0.131-0.131c0.030-0.056 0.045-0.121 0.045-0.194 0-0.078-0.015-0.146-0.044-0.203s-0.073-0.1-0.132-0.131c-0.059-0.030-0.133-0.045-0.223-0.045h-0.407v2.044h-0.502v-2.438zM31.621 25.589l-0.556-1.087 0.531-0.003 0.562 1.066v0.023h-0.537zM34.258 24.72h-0.621v-0.392h0.621c0.096 0 0.174-0.016 0.234-0.047 0.060-0.032 0.104-0.077 0.132-0.134s0.042-0.121 0.042-0.192c0-0.073-0.014-0.14-0.042-0.203s-0.072-0.113-0.132-0.151-0.138-0.057-0.234-0.057h-0.447v2.044h-0.502v-2.438h0.949c0.191 0 0.354 0.035 0.49 0.104 0.137 0.068 0.242 0.162 0.315 0.283s0.109 0.258 0.109 0.413c0 0.157-0.036 0.294-0.109 0.409s-0.177 0.204-0.315 0.266c-0.136 0.063-0.3 0.094-0.49 0.094zM37.154 25.197v0.392h-1.297v-0.392h1.297zM36.021 23.151v2.438h-0.502v-2.438h0.502zM36.985 24.144v0.382h-1.128v-0.382h1.128zM37.153 23.151v0.393h-1.296v-0.393h1.296zM38.571 23.151v2.438h-0.501v-2.438h0.501zM39.321 23.151v0.393h-1.989v-0.393h1.989zM41.242 25.197v0.392h-1.297v-0.392h1.297zM40.109 23.151v2.438h-0.502v-2.438h0.502zM41.073 24.144v0.382h-1.128v-0.382h1.128zM41.241 23.151v0.393h-1.296v-0.393h1.296zM41.535 23.151h0.909c0.186 0 0.347 0.028 0.48 0.084 0.135 0.056 0.239 0.138 0.311 0.248s0.109 0.244 0.109 0.404c0 0.131-0.022 0.243-0.067 0.337-0.044 0.093-0.105 0.17-0.186 0.233-0.079 0.061-0.172 0.11-0.28 0.147l-0.159 0.084h-0.79l-0.003-0.392h0.588c0.088 0 0.161-0.016 0.219-0.047s0.102-0.075 0.131-0.131c0.030-0.056 0.045-0.121 0.045-0.194 0-0.078-0.014-0.146-0.044-0.203s-0.073-0.1-0.132-0.131c-0.059-0.030-0.133-0.045-0.223-0.045h-0.407v2.044h-0.502v-2.438zM42.898 25.589l-0.556-1.087 0.531-0.003 0.563 1.066v0.023h-0.537zM45.001 24.951c0-0.044-0.007-0.083-0.020-0.117-0.012-0.036-0.036-0.068-0.070-0.097-0.035-0.030-0.083-0.060-0.146-0.089s-0.143-0.059-0.243-0.090c-0.111-0.036-0.215-0.076-0.315-0.12-0.098-0.045-0.185-0.097-0.261-0.156-0.075-0.060-0.134-0.13-0.178-0.209-0.042-0.079-0.064-0.171-0.064-0.276 0-0.102 0.022-0.194 0.067-0.276 0.045-0.084 0.107-0.155 0.188-0.214 0.080-0.060 0.175-0.107 0.285-0.139 0.111-0.032 0.232-0.049 0.363-0.049 0.18 0 0.337 0.032 0.47 0.097s0.238 0.153 0.311 0.266c0.075 0.113 0.112 0.242 0.112 0.387h-0.499c0-0.071-0.015-0.134-0.045-0.188-0.029-0.055-0.074-0.098-0.134-0.129-0.059-0.031-0.134-0.047-0.224-0.047-0.087 0-0.16 0.013-0.218 0.040-0.058 0.026-0.102 0.061-0.131 0.105-0.029 0.044-0.044 0.093-0.044 0.147 0 0.041 0.010 0.079 0.030 0.112 0.021 0.034 0.052 0.065 0.094 0.094s0.092 0.056 0.152 0.082 0.13 0.051 0.209 0.075c0.133 0.040 0.249 0.085 0.35 0.136 0.102 0.050 0.186 0.107 0.254 0.169s0.119 0.133 0.154 0.213c0.035 0.079 0.052 0.169 0.052 0.27 0 0.106-0.021 0.201-0.062 0.285s-0.101 0.155-0.179 0.213c-0.078 0.058-0.171 0.102-0.28 0.132s-0.229 0.045-0.363 0.045c-0.12 0-0.239-0.016-0.357-0.047-0.117-0.032-0.224-0.081-0.32-0.146-0.095-0.065-0.171-0.147-0.228-0.248s-0.085-0.219-0.085-0.357h0.504c0 0.076 0.012 0.14 0.035 0.193s0.056 0.095 0.099 0.127c0.044 0.032 0.095 0.056 0.154 0.070 0.060 0.014 0.126 0.022 0.198 0.022 0.087 0 0.158-0.012 0.214-0.037 0.057-0.025 0.099-0.059 0.126-0.102 0.028-0.044 0.042-0.093 0.042-0.147z"></path>
        </symbol>

        <symbol id="c_five" viewBox="0 0 59 32">
            <path d="M15.31 25.356c0.14 0.156 0.215 0.352 0.211 0.553 0.007 0.131-0.019 0.262-0.075 0.383s-0.143 0.229-0.252 0.316c-0.273 0.185-0.61 0.276-0.951 0.255h-1.671v-3.504h1.637c0.323-0.019 0.644 0.063 0.907 0.233 0.106 0.080 0.189 0.18 0.245 0.294s0.080 0.238 0.073 0.361c0.010 0.193-0.058 0.383-0.19 0.536-0.127 0.139-0.303 0.236-0.498 0.274 0.222 0.036 0.422 0.143 0.565 0.3zM13.349 24.827h0.7c0.159 0.011 0.317-0.031 0.445-0.116 0.053-0.043 0.093-0.096 0.12-0.155s0.037-0.123 0.031-0.187c0.005-0.063-0.006-0.127-0.031-0.186s-0.066-0.113-0.117-0.156c-0.132-0.088-0.295-0.13-0.458-0.118h-0.688v0.919zM14.562 26.171c0.056-0.044 0.1-0.099 0.129-0.161s0.041-0.129 0.036-0.195c0.004-0.068-0.009-0.135-0.038-0.198s-0.074-0.118-0.131-0.162c-0.137-0.091-0.305-0.136-0.475-0.127h-0.734v0.964h0.744c0.167 0.009 0.333-0.034 0.47-0.122z"></path>
            <path d="M18.656 26.862l-0.911-1.369h-0.342v1.369h-0.783v-3.504h1.483c0.374-0.023 0.744 0.083 1.033 0.298 0.207 0.19 0.332 0.441 0.353 0.707s-0.066 0.529-0.242 0.743c-0.183 0.189-0.433 0.314-0.707 0.356l0.97 1.4h-0.852zM17.403 25.015h0.641c0.445 0 0.667-0.177 0.667-0.531 0.005-0.072-0.008-0.145-0.036-0.212s-0.072-0.13-0.128-0.181c-0.141-0.105-0.322-0.156-0.504-0.142h-0.648l0.008 1.067z"></path>
            <path d="M22.939 26.157h-1.561l-0.276 0.705h-0.821l1.434-3.465h0.888l1.428 3.465h-0.822l-0.27-0.705zM22.73 25.627l-0.57-1.479-0.57 1.479h1.141z"></path>
            <path d="M28.299 26.862h-0.778l-1.744-2.383v2.383h-0.776v-3.504h0.776l1.744 2.397v-2.397h0.778v3.504z"></path>
            <path d="M32.737 26.024c-0.161 0.265-0.406 0.48-0.704 0.618-0.338 0.154-0.714 0.23-1.093 0.221h-1.384v-3.504h1.384c0.378-0.009 0.754 0.065 1.093 0.216 0.298 0.135 0.543 0.348 0.704 0.611 0.16 0.285 0.243 0.6 0.243 0.919s-0.083 0.634-0.243 0.919zM31.847 25.94c0.222-0.233 0.344-0.529 0.344-0.836s-0.122-0.604-0.344-0.836c-0.268-0.211-0.618-0.318-0.974-0.298h-0.54v2.268h0.54c0.355 0.020 0.705-0.087 0.974-0.298z"></path>
            <path d="M23.425 3.867c0 0 10.038 3.412 9.825 8.349v8.351c0 0-10.031-3.413-9.821-8.351l-0.004-8.349z"></path>
            <path d="M42.194 18.611c1.896-1.175 4.089-1.902 6.378-2.116v-2.614c-2.638 0.915-4.875 2.575-6.378 4.73z"></path>
            <path d="M41.055 19.399c1.552-2.813 4.242-4.983 7.517-6.065v-7.532c0 0-14.296 4.86-13.993 11.891v11.889c0 0 0.637-0.217 1.639-0.625 0-0.38 0-0.764 0.046-1.149 0.296-3.264 2.020-6.289 4.792-8.409z"></path>
            <path d="M39.695 23.815c0.075-0.825 0.243-1.64 0.5-2.434-1.726 1.831-2.772 4.103-2.989 6.497-0.021 0.226-0.032 0.452-0.038 0.685 0.812-0.351 1.757-0.789 2.75-1.304-0.253-1.132-0.328-2.291-0.222-3.443z"></path>
            <path d="M40.264 23.858c-0.095 1.042-0.036 2.090 0.177 3.117 3.906-2.104 8.294-5.355 8.125-9.284v-0.342c-2.791 0.281-5.401 1.379-7.431 3.126-0.475 1.082-0.769 2.222-0.871 3.383z"></path>
        </symbol>

        <symbol id="c_six" viewBox="0 0 59 32">
            <path d="M30.588 15.682c-0.254-0.338-0.375-0.737-0.346-1.138v-1.65c0-0.506 0.115-0.89 0.344-1.153s0.624-0.394 1.183-0.393c0.525 0 0.898 0.112 1.119 0.336 0.24 0.286 0.358 0.635 0.331 0.987v0.388h-0.94v-0.393c0.003-0.129-0.006-0.257-0.027-0.384-0.014-0.087-0.061-0.168-0.134-0.228-0.096-0.066-0.218-0.097-0.34-0.089-0.129-0.008-0.256 0.025-0.358 0.094-0.082 0.067-0.136 0.156-0.156 0.252-0.027 0.135-0.039 0.271-0.037 0.408v2.003c-0.015 0.193 0.027 0.387 0.121 0.562 0.047 0.060 0.112 0.107 0.188 0.136s0.16 0.040 0.242 0.032c0.12 0.009 0.24-0.024 0.333-0.091 0.077-0.066 0.126-0.151 0.14-0.243 0.022-0.133 0.032-0.267 0.029-0.401v-0.406h0.94v0.371c0.026 0.367-0.088 0.732-0.325 1.038-0.216 0.245-0.584 0.368-1.125 0.368s-0.949-0.131-1.181-0.403z"></path>
            <path d="M34.501 15.699c-0.237-0.257-0.356-0.631-0.356-1.127v-1.736c0-0.49 0.119-0.861 0.356-1.113s0.634-0.377 1.191-0.376c0.553 0 0.947 0.125 1.185 0.376 0.237 0.252 0.358 0.623 0.358 1.113v1.736c0 0.49-0.121 0.866-0.362 1.125s-0.634 0.388-1.181 0.388-0.951-0.131-1.191-0.386zM36.129 15.282c0.085-0.161 0.124-0.337 0.113-0.514v-2.125c0.011-0.173-0.027-0.346-0.111-0.504-0.048-0.061-0.114-0.109-0.192-0.138s-0.164-0.040-0.248-0.030c-0.084-0.010-0.17 0-0.248 0.030s-0.145 0.077-0.193 0.138c-0.086 0.157-0.124 0.33-0.113 0.504v2.136c-0.012 0.177 0.027 0.353 0.113 0.514 0.055 0.054 0.122 0.098 0.198 0.127s0.158 0.045 0.242 0.045 0.166-0.015 0.242-0.045c0.076-0.030 0.143-0.073 0.198-0.127v-0.010z"></path>
            <path d="M38.364 11.398h1.012l0.761 3.203 0.778-3.203h0.984l0.099 4.623h-0.728l-0.078-3.213-0.751 3.213h-0.584l-0.778-3.225-0.072 3.225h-0.735l0.091-4.623z"></path>
            <path d="M43.133 11.398h1.576c0.908 0 1.362 0.438 1.362 1.313 0 0.838-0.478 1.257-1.434 1.256h-0.537v2.055h-0.973l0.006-4.623zM44.479 13.373c0.096 0.011 0.194 0.003 0.286-0.022s0.177-0.067 0.249-0.124c0.112-0.156 0.161-0.339 0.14-0.522 0.005-0.141-0.011-0.282-0.047-0.42-0.014-0.046-0.038-0.089-0.072-0.127s-0.075-0.069-0.123-0.093c-0.135-0.056-0.284-0.081-0.434-0.074h-0.377v1.382h0.377z"></path>
            <path d="M47.474 11.398h1.045l1.072 4.623h-0.907l-0.212-1.066h-0.932l-0.218 1.066h-0.92l1.072-4.623zM48.367 14.419l-0.364-1.941-0.364 1.941h0.728z"></path>
            <path d="M50.456 11.398h0.681l1.304 2.637v-2.637h0.807v4.623h-0.648l-1.311-2.753v2.753h-0.835l0.002-4.623z"></path>
            <path d="M55.139 14.258l-1.084-2.854h0.912l0.661 1.833 0.621-1.833h0.893l-1.070 2.854v1.763h-0.934v-1.763z"></path>
            <path d="M32.090 18.042v0.242h-0.794v1.879h-0.333v-1.879h-0.798v-0.242h1.924z"></path>
            <path d="M34.578 20.163h-0.257c-0.026 0.001-0.052-0.006-0.072-0.020-0.019-0.012-0.034-0.029-0.043-0.049l-0.23-0.504h-1.101l-0.23 0.504c-0.007 0.021-0.018 0.041-0.035 0.057-0.020 0.014-0.046 0.021-0.072 0.020h-0.257l0.973-2.12h0.339l0.984 2.112zM32.968 19.375h0.918l-0.389-0.863c-0.029-0.065-0.053-0.132-0.072-0.2-0.014 0.040-0.025 0.079-0.037 0.112l-0.035 0.089-0.385 0.861z"></path>
            <path d="M36.256 19.954c0.061 0.003 0.122 0.003 0.183 0 0.053-0.005 0.105-0.013 0.156-0.025 0.048-0.010 0.094-0.023 0.14-0.039 0.043-0.015 0.086-0.034 0.13-0.052v-0.477h-0.389c-0.010 0-0.019-0.001-0.028-0.004s-0.017-0.007-0.024-0.013c-0.006-0.005-0.011-0.011-0.015-0.017s-0.005-0.014-0.005-0.021v-0.163h0.755v0.813c-0.062 0.038-0.127 0.072-0.195 0.101-0.069 0.030-0.142 0.054-0.216 0.072-0.080 0.020-0.161 0.035-0.243 0.044-0.094 0.009-0.189 0.014-0.284 0.014-0.168 0.001-0.334-0.026-0.49-0.079-0.146-0.051-0.278-0.126-0.389-0.222-0.108-0.097-0.194-0.211-0.251-0.336-0.061-0.141-0.092-0.29-0.090-0.44-0.002-0.151 0.028-0.301 0.088-0.443 0.056-0.126 0.141-0.24 0.251-0.336 0.111-0.095 0.243-0.17 0.389-0.22 0.167-0.054 0.343-0.081 0.521-0.079 0.091-0 0.181 0.006 0.27 0.018 0.079 0.011 0.157 0.029 0.232 0.054 0.068 0.022 0.133 0.050 0.195 0.084 0.060 0.033 0.116 0.070 0.169 0.111l-0.093 0.131c-0.007 0.012-0.018 0.022-0.032 0.029s-0.029 0.011-0.044 0.011c-0.022-0.001-0.042-0.006-0.060-0.017-0.029-0.013-0.060-0.030-0.095-0.050-0.041-0.022-0.085-0.041-0.13-0.057-0.058-0.020-0.118-0.036-0.179-0.047-0.081-0.013-0.164-0.019-0.247-0.018-0.128-0.001-0.256 0.019-0.376 0.059-0.108 0.037-0.206 0.095-0.286 0.168-0.081 0.076-0.142 0.166-0.181 0.264-0.087 0.23-0.087 0.477 0 0.707 0.043 0.1 0.109 0.191 0.195 0.267 0.080 0.073 0.177 0.13 0.284 0.168 0.124 0.037 0.255 0.051 0.385 0.042z"></path>
            <path d="M39.357 19.921h1.062v0.242h-1.387v-2.12h0.333l-0.008 1.879z"></path>
            <path d="M41.524 20.162h-0.333v-2.12h0.333v2.12z"></path>
            <path d="M42.761 18.052c0.020 0.010 0.037 0.023 0.051 0.039l1.422 1.598c-0.002-0.025-0.002-0.050 0-0.076 0-0.023 0-0.047 0-0.069v-1.511h0.29v2.129h-0.167c-0.025 0.002-0.050-0.002-0.072-0.012-0.020-0.011-0.038-0.024-0.053-0.040l-1.42-1.597c0 0.025 0 0.049 0 0.072s0 0.045 0 0.066v1.511h-0.278v-2.12h0.173c0.019 0 0.037 0.003 0.054 0.010z"></path>
            <path d="M46.974 18.042v0.233h-1.179v0.7h0.955v0.225h-0.955v0.724h1.179v0.233h-1.521v-2.115h1.521z"></path>
            <path d="M12.112 4.948l14.772 3.619v12.683l-14.772-3.618v-12.685zM11.164 3.867v14.382l16.666 4.084v-14.38l-16.666-4.086z"></path>
            <path d="M20.096 29.010l-16.667-4.088v-14.381l16.667 4.086v14.382z"></path>
            <path d="M11.44 4.785l14.58 3.574-6.2 5.352-14.582-3.576 6.202-5.35zM11.164 3.867l-7.735 6.675 16.667 4.086 7.733-6.675-16.666-4.086z"></path>
            <path d="M21.034 28.2l6.796-5.866-6.796-1.667v7.532z"></path>
        </symbol>


        <symbol id="close_icon_button" viewBox="0 0 8 8">
            <path d="M8 0.805714L7.19429 0L4 3.19429L0.805714 0L0 0.805714L3.19429 4L0 7.19429L0.805714 8L4 4.80571L7.19429 8L8 7.19429L4.80571 4L8 0.805714Z"/>
        </symbol>

        <symbol id="subscribe_icon" viewBox="0 0 24 24">
            <path d="M24 2L0 13.25L7.66994 15.6172L19.5 6.375L10.5017 16.4913L10.509 16.4936L10.5 16.4913V22L14.8013 17.8183L20.2501 19.5L24 2Z"/>
        </symbol>

        <symbol id="name_icon" viewBox="0 0 18 20">
            <path d="M9 9C10.6575 9 12 7.6575 12 6C12 4.3425 10.6575 3 9 3C7.3425 3 6 4.3425 6 6C6 7.6575 7.3425 9 9 9ZM9 10.5C6.9975 10.5 3 11.505 3 13.5V14.25C3 14.6625 3.3375 15 3.75 15H14.25C14.6625 15 15 14.6625 15 14.25V13.5C15 11.505 11.0025 10.5 9 10.5Z"/>
        </symbol>

        <symbol id="telephone_icon" viewBox="0 0 18 24">
            <path d="M14.7263 13.8651L12.8881 13.6552C12.4467 13.6046 12.0125 13.7566 11.7013 14.0677L10.3697 15.3993C8.3217 14.3572 6.64276 12.6855 5.60067 10.6303L6.93947 9.29144C7.25065 8.98025 7.40263 8.54605 7.35197 8.1046L7.1421 6.28092C7.05526 5.55 6.44013 5 5.70198 5H4.45002C3.63226 5 2.952 5.68026 3.00266 6.49802C3.38621 12.6783 8.32894 17.6138 14.5019 17.9973C15.3197 18.048 15.9999 17.3677 15.9999 16.55V15.298C16.0072 14.5671 15.4572 13.952 14.7263 13.8651Z"/>
        </symbol>

        <symbol id="email_icon" viewBox="0 0 18 24">
            <path d="M15 6H3C2.175 6 1.5075 6.675 1.5075 7.5L1.5 16.5C1.5 17.325 2.175 18 3 18H15C15.825 18 16.5 17.325 16.5 16.5V7.5C16.5 6.675 15.825 6 15 6ZM14.7 9.1875L9.3975 12.5025C9.1575 12.6525 8.8425 12.6525 8.6025 12.5025L3.3 9.1875C3.1125 9.0675 3 8.865 3 8.6475C3 8.145 3.5475 7.845 3.975 8.1075L9 11.25L14.025 8.1075C14.4525 7.845 15 8.145 15 8.6475C15 8.865 14.8875 9.0675 14.7 9.1875Z"/>
        </symbol>

        <symbol id="checkbox_stroke" viewBox="0 0 16 16">
            <rect x="0.5" y="0.5" width="15" height="15" rx="1.5" stroke="#2E2F42" stroke-opacity="0.4"/>
        </symbol>

        <symbol id="ticked_checkbox" viewBox="0 0 16 16">
            <path d="M11.4456 4.25506C11.6184 4.08965 11.8483 3.99821 12.0869 4.00003C12.3255 4.00184 12.5541 4.09677 12.7244 4.26478C12.8947 4.4328 12.9934 4.66075 12.9997 4.90055C13.006 5.14034 12.9194 5.37323 12.7582 5.55005L7.86357 11.7044C7.7794 11.7955 7.67782 11.8686 7.5649 11.9194C7.45198 11.9702 7.33003 11.9975 7.20636 11.9998C7.08268 12.0021 6.95981 11.9793 6.8451 11.9328C6.73038 11.8863 6.62618 11.817 6.53872 11.729L3.29283 8.46564C3.20243 8.38096 3.12993 8.27884 3.07965 8.16537C3.02936 8.05191 3.00232 7.92942 3.00014 7.80522C2.99796 7.68102 3.02069 7.55765 3.06696 7.44248C3.11323 7.3273 3.18211 7.22267 3.26947 7.13483C3.35684 7.047 3.4609 6.97775 3.57547 6.93123C3.69003 6.88471 3.81273 6.86186 3.93627 6.86405C4.0598 6.86624 4.18163 6.89343 4.29449 6.94398C4.40734 6.99454 4.50892 7.06743 4.59315 7.15831L7.16189 9.73967L11.4223 4.28219C11.4299 4.27269 11.4381 4.26364 11.4468 4.25506H11.4456Z"/>
        </symbol>

        <symbol id="burger" width="32" height="22" viewBox="0 0 32 22" fill="none">
        
            <path d="M1.34814 20.0431H30.8866M1.34814 10.7354H30.8866M1.34814 1.42773H30.8866" stroke="#2E2F42" stroke-width="3" stroke-linecap="round" stroke-linejoin="round"/>

        </symbol>

    </defs>

</svg>